Music_ObsidianTown:
	channel_count 4
	channel 1, Music_ObsidianTown_Ch1
	channel 2, Music_ObsidianTown_Ch2
	channel 3, Music_ObsidianTown_Ch3
	channel 4, Music_ObsidianTown_Ch4

Music_ObsidianTown_Ch1:
	stereo_panning TRUE, FALSE
	tempo 130
	volume_envelope 7, 7
	duty_cycle 2
	vibrato 18, 2, 5
	note_type 9, 9, 5
	octave 3
	rest 2
.mainloop:
	sound_call .sub1
	sound_call .sub1
	sound_call .sub1
	note F#, 4
	rest 2
	note F#, 4
	rest 2
	note F_, 4
	rest 2
	note F_, 4
	rest 2
	volume_envelope 9, 1
	note D#, 6
	volume_envelope 9, 5
	note D#, 12
	rest 4
	rest 2
	volume_envelope 9, 2
	octave 3
	note A#, 4
	note C#, 2
	note A#, 4
	note C#, 2
	note A#, 4
	note G#, 2
	note F#, 4
	note G#, 2
	note G#, 4
	note C#, 2
	note G#, 4
	note C#, 2
	note G#, 4
	note C#, 2
	note F_, 4
	note C#, 2
	note F#, 4
	octave 2
	note A#, 2
	octave 3
	note F#, 4
	octave 2
	note A#, 2
	octave 3
	note F#, 4
	octave 2
	note A#, 2
	octave 3
	note F#, 4
	note G#, 2
	note F#, 6
	note A#, 6
	note F#, 6
	note A#, 6
	note F#, 4
	octave 2
	note B_, 2
	octave 3
	note F#, 4
	octave 2
	note B_, 2
	octave 3
	note D#, 4
	octave 2
	note B_, 2
	octave 3
	note D#, 6
	note C#, 4
	octave 2
	note F#, 2
	octave 3
	note C#, 4
	octave 2
	note F#, 2
	octave 3
	note C#, 4
	octave 2
	note A#, 2
	octave 3
	note C#, 6
	note G#, 4
	note C#, 2
	note G#, 4
	note C#, 2
	note F#, 4
	note C#, 2
	note F#, 4
	note C#, 2
	volume_envelope 9, 2
	note F#, 6
	volume_envelope 9, 5
	note F#, 8
	rest 4
	note F#, 6
	volume_envelope 9, 2
	octave 3
	note A#, 4
	note C#, 2
	note A#, 4
	note C#, 2
	note A#, 4
	note G#, 2
	note F#, 4
	note G#, 2
	note G#, 4
	note C#, 2
	note G#, 4
	note C#, 2
	note G#, 4
	note C#, 2
	note F_, 4
	note C#, 2
	note F#, 4
	octave 2
	note A#, 2
	octave 3
	note F#, 4
	octave 2
	note A#, 2
	octave 3
	note F#, 4
	octave 2
	note A#, 2
	octave 3
	note F#, 4
	note G#, 2
	note F#, 6
	note A#, 6
	note F#, 6
	note A#, 6
	note F#, 4
	octave 2
	note B_, 2
	octave 3
	note F#, 4
	octave 2
	note B_, 2
	octave 3
	note D#, 4
	octave 2
	note B_, 2
	octave 3
	note D#, 6
	note C#, 4
	octave 2
	note F#, 2
	octave 3
	note C#, 4
	octave 2
	note F#, 2
	octave 3
	note C#, 4
	octave 2
	note A#, 2
	octave 3
	note C#, 6
	note G#, 4
	note C#, 2
	note G#, 4
	note C#, 2
	note F#, 4
	note C#, 2
	note F#, 4
	note C#, 2
	volume_envelope 9, 2
	note F#, 6
	volume_envelope 9, 5
	note F#, 8
	rest 4
	note F#, 6
	volume_envelope 9, 2
	octave 3
	note B_, 4
	note D#, 2
	note B_, 4
	note D#, 2
	note B_, 4
	note D#, 2
	note B_, 4
	note F#, 2
	note A#, 4
	note F_, 2
	note A#, 4
	octave 4
	note D#, 6
	octave 3
	note F_, 2
	note D#, 4
	note D#, 2
	rest 6
	note C#, 6
	note A#, 4
	note G#, 2
	note F#, 4
	note A#, 2
	note F#, 4
	note C#, 2
	note F#, 4
	note G#, 2
	rest 4
	note C#, 2
	note D#, 4
	note C#, 2
	volume_envelope 9, 2
	octave 3
	note B_, 4
	note D#, 2
	note B_, 4
	note D#, 2
	note B_, 4
	note D#, 2
	note B_, 4
	note F#, 2
	note A#, 4
	note F_, 2
	note A#, 4
	octave 4
	note D#, 6
	octave 3
	note F_, 2
	note D#, 4
	note D#, 2
	rest 6
	note A#, 4
	note D#, 2
	note A#, 4
	note D#, 2
	note A#, 4
	note D#, 2
	note F#, 6
	volume_envelope 9, 5
	note F#, 8
	rest 4
	note F#, 6
	sound_loop 0, .mainloop
.sub1:
	octave 3
	note F#, 4
	rest 2
	note F#, 4
	rest 2
	note F_, 4
	rest 2
	note F_, 4
	rest 2
	note F#, 4
	rest 2
	note F#, 4
	note F#, 6
	rest 2
	note F#, 4
	rest 2
	sound_ret


Music_ObsidianTown_Ch2:
	stereo_panning TRUE, TRUE
	duty_cycle 2
	vibrato 18, 2, 4
	note_type 9, 12, 5
	octave 3
	note C#, 2
.mainloop:
	sound_call .sub1
	sound_call .sub1
	sound_call .sub1
	note A#, 4
	note C#, 2
	note A#, 4
	note C#, 2
	note G#, 4
	note C#, 2
	note G#, 4
	note C#, 2
	volume_envelope 12, 1
	note F#, 6
	volume_envelope 12, 5
	note F#, 12
	rest 4
	volume_envelope 12, 2
	octave 3
	note A#, 1
	note B_, 1
	octave 4
	note C#, 6
	note C#, 4
	note C#, 2
	note C#, 4
	octave 3
	note B_, 2
	note A#, 4
	note B_, 2
	octave 4
	note C#, 6
	rest 16
	octave 3
	note F#, 1
	rest 1
	octave 4
	note C#, 6
	note C#, 6
	note C#, 4
	octave 3
	note B_, 2
	note A#, 4
	note B_, 2
	octave 4
	note C#, 5
	note F_, 1
	note F#, 6
	note F_, 6
	note F#, 6
	note C#, 10
	octave 3
	volume_envelope 12, 7
	note F#, 2
	note F#, 12
	volume_envelope 12, 2
	rest 8
	rest 2
	note F#, 2
	octave 4
	note C#, 4
	octave 3
	note B_, 2
	note A#, 4
	note B_, 2
	octave 4
	note C#, 10
	octave 3
	note G#, 2
	volume_envelope 12, 7
	note G#, 12
	octave 4
	volume_envelope 12, 2
	note C#, 6
	volume_envelope 12, 5
	note C#, 8
	rest 4
	note C#, 4
	volume_envelope 12, 2
	octave 3
	note A#, 1
	note B_, 1
	octave 4
	note C#, 6
	note C#, 4
	note C#, 2
	note C#, 4
	octave 3
	note B_, 2
	note A#, 4
	note B_, 2
	octave 4
	note C#, 6
	rest 16
	octave 3
	note F#, 1
	rest 1
	octave 4
	note C#, 6
	note C#, 6
	note C#, 4
	octave 3
	note B_, 2
	note A#, 4
	note B_, 2
	octave 4
	note C#, 5
	note F_, 1
	note F#, 6
	note F_, 6
	note F#, 6
	note C#, 10
	octave 3
	volume_envelope 12, 7
	note F#, 2
	note F#, 12
	volume_envelope 12, 2
	rest 8
	rest 2
	note F#, 2
	octave 4
	note C#, 4
	octave 3
	note B_, 2
	note A#, 4
	note B_, 2
	octave 4
	note C#, 10
	octave 3
	note G#, 2
	volume_envelope 12, 7
	note G#, 12
	octave 4
	volume_envelope 12, 2
	note C#, 6
	volume_envelope 12, 5
	note C#, 8
	rest 4
	note C#, 6
	volume_envelope 12, 2
	octave 3
	sound_call .sub2
	note F#, 2
	note G#, 4
	note F#, 2
	sound_call .sub2
	note A#, 2
	note B_, 4
	note A#, 2
	sound_loop 0, .mainloop
.sub1:
	octave 3
	note A#, 4
	note C#, 2
	note A#, 4
	note C#, 2
	note G#, 4
	note C#, 2
	note G#, 4
	note C#, 2
	note B_, 4
	note D#, 2
	note B_, 4
	note A#, 6
	note C#, 2
	note G#, 4
	note C#, 2
	sound_ret
.sub2:
	volume_envelope 12, 2
	octave 3
	rest 6
	note D#, 6
	note F#, 6
	octave 4
	note D#, 6
	note C#, 4
	note D#, 2
	note F_, 4
	note F#, 6
	octave 3
	note A#, 2
	note G#, 4
	volume_envelope 12, 8
	note F#, 4
	volume_envelope 12, 7
	note F#, 16
	rest 4
	volume_envelope 12, 2
	note F#, 2
	note B_, 4
	note A#, 2
	note B_, 4
	octave 4
	note C#, 6
	octave 3
	sound_ret


Music_ObsidianTown_Ch3:
	vibrato 22, 2, 4
	note_type 9, 1, 9
	stereo_panning TRUE, TRUE
	octave 2
	rest 2
.mainloop:
	sound_call .sub1
	note F#, 4
	rest 16
	rest 4
	note F#, 4
	rest 6
	note F#, 6
	rest 2
	note C#, 6
	sound_call .sub1
	note F#, 4
	rest 16
	rest 4
	note B_, 2
	rest 4
	note B_, 12
	rest 6
	octave 2
	note F#, 2
	rest 4
	octave 3
	note C#, 2
	rest 4
	octave 2
	note F#, 2
	rest 2
	octave 3
	note C#, 2
	octave 2
	note F#, 2
	rest 2
	octave 3
	note C#, 2
	octave 2
	note F_, 2
	rest 4
	octave 3
	note C#, 2
	rest 4
	octave 2
	note F_, 2
	rest 2
	octave 3
	note C#, 2
	octave 2
	note F_, 2
	rest 2
	note C#, 2
	note D#, 2
	rest 4
	note A#, 2
	rest 4
	note D#, 2
	rest 2
	note A#, 2
	note D#, 2
	rest 2
	note A#, 2
	note C#, 2
	rest 4
	note A#, 2
	rest 4
	octave 3
	note C#, 2
	octave 2
	rest 4
	note A#, 6
	octave 1
	note B_, 2
	rest 4
	octave 2
	note F#, 2
	rest 4
	octave 1
	note B_, 2
	rest 2
	octave 2
	note F#, 2
	octave 1
	note A#, 2
	rest 4
	note G#, 2
	rest 4
	octave 2
	note F#, 2
	octave 1
	rest 4
	note G#, 2
	rest 2
	octave 2
	note F#, 2
	octave 1
	note G#, 2
	rest 2
	octave 2
	note F#, 2
	note C#, 2
	rest 4
	octave 3
	note G#, 2
	octave 2
	rest 4
	note C#, 2
	rest 4
	octave 3
	note G#, 2
	octave 2
	rest 4
	note C#, 2
	rest 4
	note C#, 8
	rest 2
	note C#, 1
	rest 1
	note C#, 6
	octave 2
	note F#, 2
	rest 4
	octave 3
	note C#, 2
	rest 4
	octave 2
	note F#, 2
	rest 2
	octave 3
	note C#, 2
	octave 2
	note F#, 2
	rest 2
	octave 3
	note C#, 2
	octave 2
	note F_, 2
	rest 4
	octave 3
	note C#, 2
	rest 4
	octave 2
	note F_, 2
	rest 2
	octave 3
	note C#, 2
	octave 2
	note F_, 2
	rest 2
	note C#, 2
	note D#, 2
	rest 4
	note A#, 2
	rest 4
	note D#, 2
	rest 2
	note A#, 2
	note D#, 2
	rest 2
	note A#, 2
	note C#, 2
	rest 4
	note A#, 2
	rest 4
	octave 3
	note C#, 2
	octave 2
	rest 4
	note A#, 6
	octave 1
	note B_, 2
	rest 4
	octave 2
	note F#, 2
	rest 4
	octave 1
	note B_, 2
	rest 2
	octave 2
	note F#, 2
	octave 1
	note A#, 2
	rest 4
	note G#, 2
	rest 4
	octave 2
	note F#, 2
	octave 1
	rest 4
	note G#, 2
	rest 2
	octave 2
	note F#, 2
	octave 1
	note G#, 2
	rest 2
	octave 2
	note F#, 2
	note C#, 2
	rest 8
	note C#, 1
	rest 1
	note C#, 12
	octave 3
	note C#, 2
	rest 4
	note C#, 8
	rest 2
	octave 2
	note G#, 1
	rest 1
	note C#, 4
	note G#, 1
	rest 1
	octave 2
	note B_, 6
	rest 4
	note B_, 1
	rest 1
	note B_, 6
	rest 4
	note B_, 1
	rest 1
	note A#, 4
	rest 2
	note A#, 2
	rest 2
	octave 3
	note D#, 2
	rest 6
	note D#, 6
	octave 2
	note G#, 6
	rest 4
	note G#, 1
	rest 1
	note G#, 6
	rest 4
	note F#, 1
	rest 1
	note C#, 6
	rest 4
	note C#, 2
	rest 6
	note C#, 6
	octave 2
	note B_, 6
	rest 4
	note B_, 1
	rest 1
	note B_, 6
	rest 4
	note B_, 1
	rest 1
	note A#, 4
	rest 2
	octave 3
	note C#, 2
	rest 2
	note D#, 2
	rest 6
	note D#, 6
	octave 2
	note G#, 6
	rest 4
	note G#, 1
	rest 1
	note G#, 6
	rest 4
	note F#, 1
	rest 1
	octave 3
	note C#, 2
	rest 4
	note C#, 6
	rest 6
	note C#, 6
	sound_loop 0, .mainloop
.sub1:
	octave 2
	note F#, 4
	rest 16
	rest 4
	note F#, 4
	rest 16
	rest 2
	note C#, 2
	sound_ret


Music_ObsidianTown_Ch4:
	drum_speed 9
	stereo_panning FALSE, TRUE
	toggle_noise 3
	rest 2
.mainloop:
.loop0:
	rest 16
	sound_loop 24, .loop0
	sound_call .sub1
	sound_call .sub5
	sound_call .sub5
	sound_call .sub6
	sound_call .sub1
	sound_call .sub5
	sound_call .sub5
	sound_call .sub4
	sound_call .sub1
	sound_call .sub2
	sound_call .sub1
	sound_call .sub3
	sound_call .sub1
	sound_call .sub2
	sound_call .sub1
	sound_call .sub7
	sound_loop 0, .mainloop
.sub1:
	drum_note 4, 4
	rest 2
	drum_note 3, 4
	rest 2
	drum_note 4, 4
	drum_note 4, 2
	drum_note 3, 4
	rest 2
	sound_ret
.sub2:
	drum_note 4, 4
	rest 2
	drum_note 3, 4
	drum_note 4, 4
	rest 2
	drum_note 4, 2
	drum_note 3, 4
	rest 2
	sound_ret
.sub3:
	drum_note 4, 4
	rest 2
	drum_note 3, 4
	drum_note 4, 4
	rest 2
	drum_note 4, 2
	drum_note 3, 4
	drum_note 4, 2
	sound_ret
.sub4:
	drum_note 3, 4
	drum_note 4, 2
	drum_note 3, 4
	rest 2
	rest 4
	drum_note 4, 2
	drum_note 3, 4
	drum_note 4, 2
	sound_ret
.sub5:
	drum_note 4, 4
	rest 2
	drum_note 3, 4
	rest 2
	drum_note 4, 4
	drum_note 4, 2
	drum_note 3, 4
	drum_note 4, 2
	sound_ret
.sub6:
	drum_note 4, 4
	rest 2
	drum_note 3, 4
	rest 2
	drum_note 4, 4
	rest 2
	drum_note 3, 4
	rest 2
	sound_ret
.sub7:
	drum_note 3, 4
	drum_note 4, 2
	drum_note 3, 4
	rest 2
	rest 4
	drum_note 4, 2
	drum_note 3, 4
	rest 2
	sound_ret

